<svg width="36" height="35" viewBox="0 0 36 35" fill="none" xmlns="http://www.w3.org/2000/svg">
<path d="M30.9395 19.8992V27.006C30.9395 27.76 30.629 28.483 30.0764 29.0162C29.5239 29.5493 28.7744 29.8488 27.9929 29.8488H7.36654C6.58505 29.8488 5.83556 29.5493 5.28297 29.0162C4.73037 28.483 4.41992 27.76 4.41992 27.006V7.10684C4.41992 6.3529 4.73037 5.62984 5.28297 5.09672C5.83556 4.5636 6.58505 4.2641 7.36654 4.2641H14.7331V7.10684H7.36654V27.006H27.9929V19.8992H30.9395Z" fill="black"/>
<path d="M30.9394 9.94958H25.0462V4.2641H22.0995V9.94958H16.2063V12.7923H22.0995V18.4778H25.0462V12.7923H30.9394V9.94958Z" fill="black"/>
</svg>
