<svg width="102" height="26" viewBox="0 0 102 26" fill="none" xmlns="http://www.w3.org/2000/svg">
<path d="M5.427 4.852V15.976C5.427 17.272 6.291 18.784 7.074 18.865V19H0.432V18.865C1.215 18.784 2.079 17.272 2.079 15.976V4.852C2.079 3.556 1.215 2.044 0.432 1.963V1.828H7.074V1.963C6.291 2.044 5.427 3.556 5.427 4.852ZM19.1786 9.793V15.976C19.1786 17.272 20.0426 18.784 20.8256 18.865V19H14.3996V18.865C15.1826 18.784 16.0466 17.272 16.0466 15.976V9.739C16.0466 7.876 15.2636 7.093 13.8596 7.093C12.2666 7.093 11.2946 8.092 11.2946 9.901V15.976C11.2946 17.272 12.1586 18.784 12.9416 18.865V19H6.54265V18.865C7.32565 18.784 8.18965 17.272 8.18965 15.976V9.658C8.18965 8.227 7.73065 6.661 6.48865 6.715V6.58C7.83865 6.175 10.1066 5.446 11.4296 5.014L11.4836 5.122C10.8626 5.743 10.5116 7.066 10.5116 8.605C10.5116 9.334 10.5926 9.901 10.7006 10.279L10.9976 10.171C10.8896 9.685 10.8626 9.361 10.8626 9.01C10.8626 6.661 12.4556 5.338 15.1826 5.338C16.3706 5.338 17.8286 5.581 18.5306 6.688C18.4496 7.228 18.3686 7.903 18.3686 8.605C18.3686 9.307 18.4496 9.82 18.5846 10.171L18.8816 10.063C18.7736 9.577 18.7466 9.253 18.7466 8.902C18.7466 6.553 20.3396 5.338 22.9856 5.338C25.6046 5.338 27.0626 6.418 27.0626 9.145V15.976C27.0626 17.272 27.9266 18.784 28.7096 18.865V19H22.2836V18.865C23.0666 18.784 23.9306 17.272 23.9306 15.976V9.739C23.9306 7.876 23.1747 7.093 21.6896 7.093C20.1236 7.093 19.1786 7.984 19.1786 9.793ZM35.2941 12.034H34.1331C32.0271 12.061 31.1361 12.682 31.1361 14.869C31.1361 16.651 31.8111 17.407 33.1071 17.407C34.6191 17.407 35.2941 16.408 35.2941 14.572C35.2941 13.897 35.2941 12.736 35.2941 12.034ZM35.2941 10.036C35.2941 8.173 34.3221 7.228 32.3781 7.228C30.3531 7.228 29.1921 8.2 29.1921 9.874C29.1921 10.333 29.2731 10.657 29.4351 11.062L29.1651 11.17C28.9221 10.711 28.7871 9.982 28.7871 9.253C28.7871 6.769 30.5691 5.338 33.7011 5.338C36.7791 5.338 38.4261 6.742 38.4261 9.307V15.598C38.4261 17.164 39.0201 18.757 39.9651 18.865V19H35.0511V18.892C35.7531 18.73 36.0501 17.866 36.1041 16.219C36.1311 15.382 35.9961 14.572 35.8881 14.221L35.5911 14.302C35.6991 14.788 35.7261 15.058 35.7261 15.436C35.7261 17.839 34.1871 19.27 31.7571 19.27C29.3541 19.27 28.1121 17.866 28.1121 15.544C28.1121 12.79 29.8401 11.44 33.3231 11.44H35.2941C35.2941 11.143 35.2941 10.36 35.2941 10.036ZM43.1732 10.603C43.4972 13.114 44.6852 14.599 46.0082 14.464C47.6552 14.302 47.5202 11.332 47.3852 9.793C47.1422 7.552 45.9542 5.689 44.4962 5.851C42.9302 6.013 43.0112 9.01 43.1732 10.603ZM47.8712 19H42.9032C41.7422 19.702 41.1212 20.485 41.1212 21.187C41.1212 22.267 42.4982 22.942 45.1712 22.942C48.3032 22.942 50.6792 21.862 50.6792 20.458C50.6792 19.594 49.6802 19 47.8712 19ZM40.0142 10.171C40.0142 7.363 41.6072 5.446 45.0902 5.338C47.7902 5.23 49.1942 3.475 49.0592 1.909L49.1402 1.882L50.8952 4.825C50.2742 5.257 48.0062 5.527 46.5212 5.473C49.2482 5.959 50.5172 8.119 50.5172 10.387C50.5172 13.033 48.8432 14.977 45.2522 14.977C44.2532 14.977 43.3892 14.788 42.7142 14.437C42.3902 15.112 42.0662 15.76 41.6882 16.381H47.7902C50.5442 16.381 51.7592 17.407 51.7592 19.27C51.7592 22.24 47.9792 25.48 43.4702 25.48C40.7972 25.48 39.2582 24.346 39.2582 22.753C39.2582 21.376 40.3652 19.972 42.2552 19H38.9612V18.838C40.0952 18.001 41.6072 16.138 42.2822 14.194C40.7162 13.411 40.0142 11.98 40.0142 10.171ZM51.8723 2.098C51.8723 1.207 52.3313 0.504998 53.8163 0.504998C55.3013 0.504998 55.7603 1.207 55.7603 2.098C55.7603 2.989 55.3013 3.691 53.8163 3.691C52.3313 3.691 51.8723 2.989 51.8723 2.098ZM52.7093 15.976V9.658C52.7093 8.2 52.1153 6.661 50.9273 6.715L50.9003 6.58L56.5703 5.014L56.6243 5.122C56.0303 5.662 55.8413 6.499 55.8413 7.93V15.976C55.8413 17.272 56.7053 18.784 57.4883 18.865V19H51.0893V18.865C51.8723 18.784 52.7093 17.272 52.7093 15.976ZM60.8268 8.551C60.8268 9.226 60.9348 9.928 61.0428 10.279L61.3398 10.171C61.2318 9.685 61.2048 9.361 61.2048 9.01C61.2048 6.661 62.8518 5.338 65.5788 5.338C68.1708 5.338 69.6288 6.445 69.6288 9.145V15.976C69.6288 17.272 70.4928 18.784 71.2758 18.865V19H64.8498V18.865C65.6328 18.784 66.4968 17.272 66.4968 15.976V9.739C66.4968 7.876 65.6868 7.093 64.2828 7.093C62.6358 7.093 61.6368 8.092 61.6368 9.901V15.976C61.6368 17.272 62.5008 18.784 63.2838 18.865V19H56.8578V18.865C57.6408 18.784 58.5048 17.272 58.5048 15.976V9.685C58.5048 8.2 57.9108 6.661 56.6958 6.715V6.58L61.8798 5.014L61.9338 5.122C61.3668 5.662 60.8268 6.985 60.8268 8.551ZM77.8296 12.034H76.6686C74.5626 12.061 73.6716 12.682 73.6716 14.869C73.6716 16.651 74.3466 17.407 75.6426 17.407C77.1546 17.407 77.8296 16.408 77.8296 14.572C77.8296 13.897 77.8296 12.736 77.8296 12.034ZM77.8296 10.036C77.8296 8.173 76.8576 7.228 74.9136 7.228C72.8886 7.228 71.7276 8.2 71.7276 9.874C71.7276 10.333 71.8086 10.657 71.9706 11.062L71.7006 11.17C71.4576 10.711 71.3226 9.982 71.3226 9.253C71.3226 6.769 73.1046 5.338 76.2366 5.338C79.3146 5.338 80.9616 6.742 80.9616 9.307V15.598C80.9616 17.164 81.5556 18.757 82.5006 18.865V19H77.5866V18.892C78.2886 18.73 78.5856 17.866 78.6396 16.219C78.6666 15.382 78.5316 14.572 78.4236 14.221L78.1266 14.302C78.2346 14.788 78.2616 15.058 78.2616 15.436C78.2616 17.839 76.7226 19.27 74.2926 19.27C71.8896 19.27 70.6476 17.866 70.6476 15.544C70.6476 12.79 72.3756 11.44 75.8586 11.44H77.8296C77.8296 11.143 77.8296 10.36 77.8296 10.036ZM90.2178 5.419H90.7308V9.01L90.6498 9.037C90.3258 8.416 89.7318 8.092 88.8678 8.092C86.9778 8.092 86.3568 9.253 86.3568 11.008V15.976C86.3568 17.272 87.2208 18.784 88.0038 18.865V19H81.5778V18.865C82.3608 18.784 83.2248 17.272 83.2248 15.976V9.685C83.2248 8.227 82.7658 6.661 81.5238 6.715V6.58L86.4918 5.014L86.5458 5.122C85.9248 5.77 85.5468 7.093 85.5468 8.578C85.5468 9.334 85.6548 10.036 85.7628 10.387L86.0598 10.306C85.9518 9.82 85.9248 9.469 85.9248 9.118C85.9248 6.688 87.3828 5.419 90.2178 5.419ZM97.0935 12.034H95.9325C93.8265 12.061 92.9355 12.682 92.9355 14.869C92.9355 16.651 93.6105 17.407 94.9065 17.407C96.4185 17.407 97.0935 16.408 97.0935 14.572C97.0935 13.897 97.0935 12.736 97.0935 12.034ZM97.0935 10.036C97.0935 8.173 96.1215 7.228 94.1775 7.228C92.1525 7.228 90.9915 8.2 90.9915 9.874C90.9915 10.333 91.0725 10.657 91.2345 11.062L90.9645 11.17C90.7215 10.711 90.5865 9.982 90.5865 9.253C90.5865 6.769 92.3685 5.338 95.5005 5.338C98.5785 5.338 100.225 6.742 100.225 9.307V15.598C100.225 17.164 100.819 18.757 101.764 18.865V19H96.8505V18.892C97.5525 18.73 97.8495 17.866 97.9035 16.219C97.9305 15.382 97.7955 14.572 97.6875 14.221L97.3905 14.302C97.4985 14.788 97.5255 15.058 97.5255 15.436C97.5255 17.839 95.9865 19.27 93.5565 19.27C91.1535 19.27 89.9115 17.866 89.9115 15.544C89.9115 12.79 91.6395 11.44 95.1225 11.44H97.0935C97.0935 11.143 97.0935 10.36 97.0935 10.036Z" fill="#F1EFEF"/>
</svg>
